<mxfile host="app.diagrams.net" modified="2025-10-17T19:05:00.000Z" agent="5.0 (Windows)" version="24.7.2" type="device">
  <diagram id="n2k2oSTkZ9o8a8V1kS8Y" name="Ajasta Architecture">
    <mxGraphModel dx="1200" dy="800" grid="1" gridSize="10" guides="1" tooltips="1" connect="1" arrows="1" fold="1" page="1" pageScale="1" pageWidth="1920" pageHeight="1080" math="0" shadow="0">
      <root>
        <mxCell id="0" />
        <mxCell id="1" parent="0" />
        
        <mxCell id="user" value="User (Browser)" style="shape=ellipse;whiteSpace=wrap;html=1;fillColor=#dae8fc;strokeColor=#6c8ebf;" vertex="1" parent="1">
          <mxGeometry x="80" y="160" width="120" height="60" as="geometry" />
        </mxCell>
        
        <mxCell id="nginx" value="Frontend\n(Nginx + React SPA)" style="rounded=1;whiteSpace=wrap;html=1;fillColor=#e1d5e7;strokeColor=#9673a6;" vertex="1" parent="1">
          <mxGeometry x="280" y="140" width="200" height="100" as="geometry" />
        </mxCell>
        
        <mxCell id="backend" value="Backend\n(Spring Boot API)" style="rounded=1;whiteSpace=wrap;html=1;fillColor=#d5e8d4;strokeColor=#82b366;" vertex="1" parent="1">
          <mxGeometry x="540" y="140" width="200" height="100" as="geometry" />
        </mxCell>
        
        <mxCell id="postgres" value="PostgreSQL" style="shape=cylinder;whiteSpace=wrap;html=1;fillColor=#fff2cc;strokeColor=#d6b656;" vertex="1" parent="1">
          <mxGeometry x="820" y="140" width="140" height="100" as="geometry" />
        </mxCell>
        
        <mxCell id="mailhog" value="Mailhog (dev mail)" style="rounded=1;whiteSpace=wrap;html=1;fillColor=#f8cecc;strokeColor=#b85450;" vertex="1" parent="1">
          <mxGeometry x="560" y="280" width="160" height="60" as="geometry" />
        </mxCell>
        
        <mxCell id="adminer" value="Adminer (DB UI)" style="rounded=1;whiteSpace=wrap;html=1;fillColor=#f5f5f5;strokeColor=#999999;" vertex="1" parent="1">
          <mxGeometry x="820" y="280" width="140" height="60" as="geometry" />
        </mxCell>
        
        <mxCell id="keycloak" value="Keycloak (Auth)" style="rounded=1;whiteSpace=wrap;html=1;fillColor=#cce5ff;strokeColor=#5b9bd5;" vertex="1" parent="1">
          <mxGeometry x="540" y="40" width="200" height="60" as="geometry" />
        </mxCell>
        
        <mxCell id="os" value="OpenSearch" style="rounded=1;whiteSpace=wrap;html=1;fillColor=#d9ead3;strokeColor=#6aa84f;" vertex="1" parent="1">
          <mxGeometry x="1020" y="140" width="160" height="60" as="geometry" />
        </mxCell>
        
        <mxCell id="osdash" value="OpenSearch Dashboards" style="rounded=1;whiteSpace=wrap;html=1;fillColor=#d9d2e9;strokeColor=#8e7cc3;" vertex="1" parent="1">
          <mxGeometry x="1020" y="220" width="160" height="60" as="geometry" />
        </mxCell>
        
        <!-- Edges -->
        <mxCell id="e1" edge="1" parent="1" source="user" target="nginx" style="endArrow=block;strokeColor=#6c8ebf;" />
        <mxCell id="e2" edge="1" parent="1" source="nginx" target="backend" style="endArrow=block;strokeColor=#82b366;" />
        <mxCell id="e3" edge="1" parent="1" source="backend" target="postgres" style="endArrow=block;strokeColor=#d6b656;" />
        <mxCell id="e4" edge="1" parent="1" source="backend" target="mailhog" style="endArrow=block;dashed=1;strokeColor=#b85450;" />
        <mxCell id="e5" edge="1" parent="1" source="adminer" target="postgres" style="endArrow=block;strokeColor=#999999;" />
        <mxCell id="e6" edge="1" parent="1" source="backend" target="keycloak" style="endArrow=block;dashed=1;strokeColor=#5b9bd5;" />
        <mxCell id="e7" edge="1" parent="1" source="osdash" target="os" style="endArrow=block;strokeColor=#6aa84f;" />
      </root>
    </mxGraphModel>
  </diagram>
</mxfile>
